<mxfile host="65bd71144e">
    <diagram id="_8M43IFrzeMH5SOSUoQe" name="Choise">
        <mxGraphModel dx="1375" dy="1045" grid="1" gridSize="10" guides="1" tooltips="1" connect="1" arrows="1" fold="1" page="1" pageScale="1" pageWidth="827" pageHeight="1169" math="0" shadow="0">
            <root>
                <mxCell id="vKauSasiYgyH7li5i26U-0"/>
                <mxCell id="vKauSasiYgyH7li5i26U-1" parent="vKauSasiYgyH7li5i26U-0"/>
                <mxCell id="SgiLiXgoFrwoRo0Kyyoe-87" value="" style="endArrow=none;html=1;rounded=0;shadow=0;jumpStyle=none;jumpSize=11;shape=link;" edge="1" parent="vKauSasiYgyH7li5i26U-1">
                    <mxGeometry width="50" height="50" relative="1" as="geometry">
                        <mxPoint x="420" y="324.84" as="sourcePoint"/>
                        <mxPoint x="570" y="324.84" as="targetPoint"/>
                    </mxGeometry>
                </mxCell>
                <mxCell id="SgiLiXgoFrwoRo0Kyyoe-90" value="" style="endArrow=none;html=1;rounded=0;jumpStyle=line;jumpSize=11;shadow=0;jumpStyle=none;jumpSize=11;shape=link;" edge="1" parent="vKauSasiYgyH7li5i26U-1">
                    <mxGeometry width="50" height="50" relative="1" as="geometry">
                        <mxPoint x="420" y="275" as="sourcePoint"/>
                        <mxPoint x="570" y="275.20000000000005" as="targetPoint"/>
                    </mxGeometry>
                </mxCell>
                <mxCell id="SgiLiXgoFrwoRo0Kyyoe-92" value="" style="endArrow=none;html=1;rounded=0;shadow=0;jumpStyle=none;jumpSize=11;shape=link;" edge="1" parent="vKauSasiYgyH7li5i26U-1">
                    <mxGeometry width="50" height="50" relative="1" as="geometry">
                        <mxPoint x="420" y="415" as="sourcePoint"/>
                        <mxPoint x="568" y="414.71999999999997" as="targetPoint"/>
                    </mxGeometry>
                </mxCell>
                <mxCell id="SgiLiXgoFrwoRo0Kyyoe-84" value="" style="endArrow=none;dashed=1;html=1;dashPattern=1 3;strokeWidth=2;rounded=0;shadow=0;jumpStyle=none;jumpSize=4;" edge="1" parent="vKauSasiYgyH7li5i26U-1">
                    <mxGeometry width="50" height="50" relative="1" as="geometry">
                        <mxPoint x="400" y="160" as="sourcePoint"/>
                        <mxPoint x="400" y="480" as="targetPoint"/>
                    </mxGeometry>
                </mxCell>
                <mxCell id="SgiLiXgoFrwoRo0Kyyoe-73" value="" style="endArrow=none;dashed=1;html=1;dashPattern=1 3;strokeWidth=2;rounded=0;shadow=0;jumpStyle=none;jumpSize=4;" edge="1" parent="vKauSasiYgyH7li5i26U-1">
                    <mxGeometry width="50" height="50" relative="1" as="geometry">
                        <mxPoint x="140" y="380" as="sourcePoint"/>
                        <mxPoint x="650" y="380" as="targetPoint"/>
                    </mxGeometry>
                </mxCell>
                <mxCell id="SgiLiXgoFrwoRo0Kyyoe-71" value="" style="edgeStyle=orthogonalEdgeStyle;rounded=0;jumpStyle=line;jumpSize=11;html=1;exitX=0.5;exitY=1;exitDx=0;exitDy=0;shadow=0;endArrow=none;" edge="1" parent="vKauSasiYgyH7li5i26U-1" source="SgiLiXgoFrwoRo0Kyyoe-33" target="SgiLiXgoFrwoRo0Kyyoe-70">
                    <mxGeometry relative="1" as="geometry">
                        <mxPoint x="613" y="250" as="sourcePoint"/>
                        <mxPoint x="613" y="450" as="targetPoint"/>
                    </mxGeometry>
                </mxCell>
                <mxCell id="SgiLiXgoFrwoRo0Kyyoe-24" style="edgeStyle=orthogonalEdgeStyle;rounded=0;jumpStyle=line;jumpSize=11;html=1;exitX=0.5;exitY=1;exitDx=0;exitDy=0;shadow=0;entryX=0.5;entryY=0;entryDx=0;entryDy=0;" edge="1" parent="vKauSasiYgyH7li5i26U-1" source="SgiLiXgoFrwoRo0Kyyoe-0" target="SgiLiXgoFrwoRo0Kyyoe-22">
                    <mxGeometry relative="1" as="geometry">
                        <mxPoint x="620" y="140" as="targetPoint"/>
                        <Array as="points">
                            <mxPoint x="140" y="120"/>
                            <mxPoint x="613" y="120"/>
                        </Array>
                    </mxGeometry>
                </mxCell>
                <mxCell id="SgiLiXgoFrwoRo0Kyyoe-74" style="edgeStyle=orthogonalEdgeStyle;rounded=0;jumpStyle=line;jumpSize=11;html=1;exitX=0.5;exitY=1;exitDx=0;exitDy=0;shadow=0;entryX=0.5;entryY=0;entryDx=0;entryDy=0;" edge="1" parent="vKauSasiYgyH7li5i26U-1" source="SgiLiXgoFrwoRo0Kyyoe-0" target="SgiLiXgoFrwoRo0Kyyoe-75">
                    <mxGeometry relative="1" as="geometry">
                        <mxPoint x="140" y="570" as="targetPoint"/>
                        <Array as="points">
                            <mxPoint x="140" y="120"/>
                            <mxPoint x="700" y="120"/>
                            <mxPoint x="700" y="520"/>
                            <mxPoint x="140" y="520"/>
                        </Array>
                    </mxGeometry>
                </mxCell>
                <mxCell id="SgiLiXgoFrwoRo0Kyyoe-0" value="Директор" style="rounded=0;whiteSpace=wrap;html=1;" vertex="1" parent="vKauSasiYgyH7li5i26U-1">
                    <mxGeometry x="80" width="120" height="60" as="geometry"/>
                </mxCell>
                <mxCell id="SgiLiXgoFrwoRo0Kyyoe-51" style="edgeStyle=orthogonalEdgeStyle;rounded=0;jumpStyle=line;jumpSize=11;html=1;exitX=0.5;exitY=1;exitDx=0;exitDy=0;entryX=0.5;entryY=0;entryDx=0;entryDy=0;shadow=0;" edge="1" parent="vKauSasiYgyH7li5i26U-1" source="SgiLiXgoFrwoRo0Kyyoe-1" target="SgiLiXgoFrwoRo0Kyyoe-37">
                    <mxGeometry relative="1" as="geometry"/>
                </mxCell>
                <mxCell id="SgiLiXgoFrwoRo0Kyyoe-1" value="Каменщик 1" style="rounded=0;whiteSpace=wrap;html=1;" vertex="1" parent="vKauSasiYgyH7li5i26U-1">
                    <mxGeometry x="137.5" y="160" width="85" height="30" as="geometry"/>
                </mxCell>
                <mxCell id="SgiLiXgoFrwoRo0Kyyoe-52" style="edgeStyle=orthogonalEdgeStyle;rounded=0;jumpStyle=line;jumpSize=11;html=1;exitX=0.5;exitY=1;exitDx=0;exitDy=0;entryX=0.5;entryY=0;entryDx=0;entryDy=0;shadow=0;" edge="1" parent="vKauSasiYgyH7li5i26U-1" source="SgiLiXgoFrwoRo0Kyyoe-2" target="SgiLiXgoFrwoRo0Kyyoe-36">
                    <mxGeometry relative="1" as="geometry"/>
                </mxCell>
                <mxCell id="SgiLiXgoFrwoRo0Kyyoe-2" value="Каменщик 2" style="rounded=0;whiteSpace=wrap;html=1;" vertex="1" parent="vKauSasiYgyH7li5i26U-1">
                    <mxGeometry x="286.37" y="160" width="86" height="30" as="geometry"/>
                </mxCell>
                <mxCell id="SgiLiXgoFrwoRo0Kyyoe-53" style="edgeStyle=orthogonalEdgeStyle;rounded=0;jumpStyle=line;jumpSize=11;html=1;exitX=0.5;exitY=1;exitDx=0;exitDy=0;shadow=0;" edge="1" parent="vKauSasiYgyH7li5i26U-1" source="SgiLiXgoFrwoRo0Kyyoe-3" target="SgiLiXgoFrwoRo0Kyyoe-35">
                    <mxGeometry relative="1" as="geometry"/>
                </mxCell>
                <mxCell id="SgiLiXgoFrwoRo0Kyyoe-3" value="Каменщик N" style="rounded=0;whiteSpace=wrap;html=1;" vertex="1" parent="vKauSasiYgyH7li5i26U-1">
                    <mxGeometry x="440" y="160" width="86" height="30" as="geometry"/>
                </mxCell>
                <mxCell id="SgiLiXgoFrwoRo0Kyyoe-15" style="edgeStyle=none;html=1;exitX=0.5;exitY=1;exitDx=0;exitDy=0;entryX=0.5;entryY=0;entryDx=0;entryDy=0;rounded=0;" edge="1" parent="vKauSasiYgyH7li5i26U-1" source="SgiLiXgoFrwoRo0Kyyoe-0" target="SgiLiXgoFrwoRo0Kyyoe-3">
                    <mxGeometry relative="1" as="geometry">
                        <mxPoint x="150" y="110" as="sourcePoint"/>
                        <mxPoint x="790" y="170" as="targetPoint"/>
                        <Array as="points">
                            <mxPoint x="140" y="120"/>
                            <mxPoint x="483" y="120"/>
                        </Array>
                    </mxGeometry>
                </mxCell>
                <mxCell id="SgiLiXgoFrwoRo0Kyyoe-17" style="edgeStyle=none;html=1;exitX=0.5;exitY=1;exitDx=0;exitDy=0;entryX=0.5;entryY=0;entryDx=0;entryDy=0;rounded=0;" edge="1" parent="vKauSasiYgyH7li5i26U-1" source="SgiLiXgoFrwoRo0Kyyoe-0" target="SgiLiXgoFrwoRo0Kyyoe-2">
                    <mxGeometry relative="1" as="geometry">
                        <mxPoint x="160" y="120" as="sourcePoint"/>
                        <mxPoint x="630" y="170" as="targetPoint"/>
                        <Array as="points">
                            <mxPoint x="140" y="120"/>
                            <mxPoint x="330" y="120"/>
                        </Array>
                    </mxGeometry>
                </mxCell>
                <mxCell id="SgiLiXgoFrwoRo0Kyyoe-19" style="edgeStyle=none;html=1;exitX=0.5;exitY=1;exitDx=0;exitDy=0;entryX=0.5;entryY=0;entryDx=0;entryDy=0;jumpStyle=line;jumpSize=0;shadow=0;rounded=0;" edge="1" parent="vKauSasiYgyH7li5i26U-1" source="SgiLiXgoFrwoRo0Kyyoe-0" target="SgiLiXgoFrwoRo0Kyyoe-1">
                    <mxGeometry relative="1" as="geometry">
                        <mxPoint x="150" y="110" as="sourcePoint"/>
                        <mxPoint x="340" y="170" as="targetPoint"/>
                        <Array as="points">
                            <mxPoint x="140" y="120"/>
                            <mxPoint x="180" y="120"/>
                        </Array>
                    </mxGeometry>
                </mxCell>
                <mxCell id="SgiLiXgoFrwoRo0Kyyoe-54" style="edgeStyle=orthogonalEdgeStyle;rounded=0;jumpStyle=line;jumpSize=11;html=1;exitX=0.5;exitY=1;exitDx=0;exitDy=0;entryX=0.5;entryY=0;entryDx=0;entryDy=0;shadow=0;" edge="1" parent="vKauSasiYgyH7li5i26U-1" source="SgiLiXgoFrwoRo0Kyyoe-22" target="SgiLiXgoFrwoRo0Kyyoe-33">
                    <mxGeometry relative="1" as="geometry"/>
                </mxCell>
                <mxCell id="SgiLiXgoFrwoRo0Kyyoe-22" value="Диспетчер" style="rounded=0;whiteSpace=wrap;html=1;" vertex="1" parent="vKauSasiYgyH7li5i26U-1">
                    <mxGeometry x="570" y="160" width="86" height="30" as="geometry"/>
                </mxCell>
                <mxCell id="SgiLiXgoFrwoRo0Kyyoe-33" value="Начало" style="rounded=1;whiteSpace=wrap;html=1;arcSize=50;" vertex="1" parent="vKauSasiYgyH7li5i26U-1">
                    <mxGeometry x="570" y="220" width="86" height="30" as="geometry"/>
                </mxCell>
                <mxCell id="SgiLiXgoFrwoRo0Kyyoe-35" value="Начало" style="rounded=1;whiteSpace=wrap;html=1;arcSize=50;" vertex="1" parent="vKauSasiYgyH7li5i26U-1">
                    <mxGeometry x="440" y="220" width="86" height="30" as="geometry"/>
                </mxCell>
                <mxCell id="SgiLiXgoFrwoRo0Kyyoe-36" value="Начало" style="rounded=1;whiteSpace=wrap;html=1;arcSize=50;" vertex="1" parent="vKauSasiYgyH7li5i26U-1">
                    <mxGeometry x="286.37" y="220" width="86" height="30" as="geometry"/>
                </mxCell>
                <mxCell id="SgiLiXgoFrwoRo0Kyyoe-37" value="Начало" style="rounded=1;whiteSpace=wrap;html=1;arcSize=50;" vertex="1" parent="vKauSasiYgyH7li5i26U-1">
                    <mxGeometry x="136.5" y="220" width="86" height="30" as="geometry"/>
                </mxCell>
                <mxCell id="SgiLiXgoFrwoRo0Kyyoe-83" style="edgeStyle=orthogonalEdgeStyle;rounded=0;jumpStyle=line;jumpSize=11;html=1;exitX=0.5;exitY=1;exitDx=0;exitDy=0;shadow=0;" edge="1" parent="vKauSasiYgyH7li5i26U-1" source="SgiLiXgoFrwoRo0Kyyoe-39">
                    <mxGeometry relative="1" as="geometry">
                        <mxPoint x="613.047619047619" y="520" as="targetPoint"/>
                    </mxGeometry>
                </mxCell>
                <mxCell id="SgiLiXgoFrwoRo0Kyyoe-39" value="Конец" style="rounded=1;whiteSpace=wrap;html=1;arcSize=50;" vertex="1" parent="vKauSasiYgyH7li5i26U-1">
                    <mxGeometry x="570" y="450" width="86" height="30" as="geometry"/>
                </mxCell>
                <mxCell id="SgiLiXgoFrwoRo0Kyyoe-82" style="edgeStyle=orthogonalEdgeStyle;rounded=0;jumpStyle=line;jumpSize=11;html=1;exitX=0.5;exitY=1;exitDx=0;exitDy=0;shadow=0;" edge="1" parent="vKauSasiYgyH7li5i26U-1" source="SgiLiXgoFrwoRo0Kyyoe-40">
                    <mxGeometry relative="1" as="geometry">
                        <mxPoint x="482.57142857142844" y="520" as="targetPoint"/>
                    </mxGeometry>
                </mxCell>
                <mxCell id="SgiLiXgoFrwoRo0Kyyoe-40" value="Конец" style="rounded=1;whiteSpace=wrap;html=1;arcSize=50;" vertex="1" parent="vKauSasiYgyH7li5i26U-1">
                    <mxGeometry x="440" y="450" width="86" height="30" as="geometry"/>
                </mxCell>
                <mxCell id="SgiLiXgoFrwoRo0Kyyoe-81" style="edgeStyle=orthogonalEdgeStyle;rounded=0;jumpStyle=line;jumpSize=11;html=1;exitX=0.5;exitY=1;exitDx=0;exitDy=0;shadow=0;" edge="1" parent="vKauSasiYgyH7li5i26U-1" source="SgiLiXgoFrwoRo0Kyyoe-41">
                    <mxGeometry relative="1" as="geometry">
                        <mxPoint x="329.2380952380952" y="520" as="targetPoint"/>
                    </mxGeometry>
                </mxCell>
                <mxCell id="SgiLiXgoFrwoRo0Kyyoe-41" value="Конец" style="rounded=1;whiteSpace=wrap;html=1;arcSize=50;" vertex="1" parent="vKauSasiYgyH7li5i26U-1">
                    <mxGeometry x="286.37" y="450" width="86" height="30" as="geometry"/>
                </mxCell>
                <mxCell id="SgiLiXgoFrwoRo0Kyyoe-80" style="edgeStyle=orthogonalEdgeStyle;rounded=0;jumpStyle=line;jumpSize=11;html=1;shadow=0;" edge="1" parent="vKauSasiYgyH7li5i26U-1" source="SgiLiXgoFrwoRo0Kyyoe-42">
                    <mxGeometry relative="1" as="geometry">
                        <mxPoint x="179.4999999999999" y="520" as="targetPoint"/>
                    </mxGeometry>
                </mxCell>
                <mxCell id="SgiLiXgoFrwoRo0Kyyoe-42" value="Конец" style="rounded=1;whiteSpace=wrap;html=1;arcSize=50;" vertex="1" parent="vKauSasiYgyH7li5i26U-1">
                    <mxGeometry x="136.5" y="450" width="86" height="30" as="geometry"/>
                </mxCell>
                <mxCell id="SgiLiXgoFrwoRo0Kyyoe-59" value="" style="endArrow=none;html=1;rounded=0;jumpStyle=line;jumpSize=11;shadow=0;jumpStyle=none;jumpSize=11;shape=link;" edge="1" parent="vKauSasiYgyH7li5i26U-1">
                    <mxGeometry width="50" height="50" relative="1" as="geometry">
                        <mxPoint x="137.5" y="274.72" as="sourcePoint"/>
                        <mxPoint x="380" y="275.20000000000005" as="targetPoint"/>
                    </mxGeometry>
                </mxCell>
                <mxCell id="SgiLiXgoFrwoRo0Kyyoe-56" style="edgeStyle=orthogonalEdgeStyle;rounded=0;jumpStyle=none;jumpSize=4;html=1;exitX=0.5;exitY=1;exitDx=0;exitDy=0;shadow=0;startArrow=none;" edge="1" parent="vKauSasiYgyH7li5i26U-1" source="SgiLiXgoFrwoRo0Kyyoe-70" target="SgiLiXgoFrwoRo0Kyyoe-39">
                    <mxGeometry relative="1" as="geometry"/>
                </mxCell>
                <mxCell id="SgiLiXgoFrwoRo0Kyyoe-61" value="" style="endArrow=none;html=1;rounded=0;shadow=0;jumpStyle=none;jumpSize=11;shape=link;" edge="1" parent="vKauSasiYgyH7li5i26U-1">
                    <mxGeometry width="50" height="50" relative="1" as="geometry">
                        <mxPoint x="137.5" y="324.71999999999997" as="sourcePoint"/>
                        <mxPoint x="380" y="325.2" as="targetPoint"/>
                    </mxGeometry>
                </mxCell>
                <mxCell id="SgiLiXgoFrwoRo0Kyyoe-63" value="" style="endArrow=none;html=1;rounded=0;shadow=0;jumpStyle=none;jumpSize=11;shape=link;" edge="1" parent="vKauSasiYgyH7li5i26U-1">
                    <mxGeometry width="50" height="50" relative="1" as="geometry">
                        <mxPoint x="136.5" y="414.52" as="sourcePoint"/>
                        <mxPoint x="380" y="415" as="targetPoint"/>
                    </mxGeometry>
                </mxCell>
                <mxCell id="SgiLiXgoFrwoRo0Kyyoe-55" style="edgeStyle=orthogonalEdgeStyle;rounded=0;jumpStyle=line;jumpSize=11;html=1;exitX=0.5;exitY=1;exitDx=0;exitDy=0;shadow=0;" edge="1" parent="vKauSasiYgyH7li5i26U-1" source="SgiLiXgoFrwoRo0Kyyoe-35" target="SgiLiXgoFrwoRo0Kyyoe-40">
                    <mxGeometry relative="1" as="geometry"/>
                </mxCell>
                <mxCell id="SgiLiXgoFrwoRo0Kyyoe-49" style="edgeStyle=orthogonalEdgeStyle;rounded=0;jumpStyle=line;jumpSize=11;html=1;exitX=0.5;exitY=1;exitDx=0;exitDy=0;shadow=0;" edge="1" parent="vKauSasiYgyH7li5i26U-1" source="SgiLiXgoFrwoRo0Kyyoe-36" target="SgiLiXgoFrwoRo0Kyyoe-41">
                    <mxGeometry relative="1" as="geometry"/>
                </mxCell>
                <mxCell id="SgiLiXgoFrwoRo0Kyyoe-48" style="edgeStyle=orthogonalEdgeStyle;rounded=0;jumpStyle=line;jumpSize=11;html=1;exitX=0.5;exitY=1;exitDx=0;exitDy=0;shadow=0;" edge="1" parent="vKauSasiYgyH7li5i26U-1" source="SgiLiXgoFrwoRo0Kyyoe-37" target="SgiLiXgoFrwoRo0Kyyoe-42">
                    <mxGeometry relative="1" as="geometry"/>
                </mxCell>
                <mxCell id="SgiLiXgoFrwoRo0Kyyoe-65" value="Балансировка" style="rounded=0;whiteSpace=wrap;html=1;" vertex="1" parent="vKauSasiYgyH7li5i26U-1">
                    <mxGeometry x="570" y="260" width="90" height="30" as="geometry"/>
                </mxCell>
                <mxCell id="SgiLiXgoFrwoRo0Kyyoe-67" value="Балансировка" style="rounded=0;whiteSpace=wrap;html=1;" vertex="1" parent="vKauSasiYgyH7li5i26U-1">
                    <mxGeometry x="570" y="310" width="90" height="30" as="geometry"/>
                </mxCell>
                <mxCell id="SgiLiXgoFrwoRo0Kyyoe-70" value="Балансировка" style="rounded=0;whiteSpace=wrap;html=1;" vertex="1" parent="vKauSasiYgyH7li5i26U-1">
                    <mxGeometry x="568" y="400" width="90" height="30" as="geometry"/>
                </mxCell>
                <mxCell id="SgiLiXgoFrwoRo0Kyyoe-75" value="Конец" style="rounded=1;whiteSpace=wrap;html=1;arcSize=50;" vertex="1" parent="vKauSasiYgyH7li5i26U-1">
                    <mxGeometry x="97" y="540" width="86" height="30" as="geometry"/>
                </mxCell>
                <mxCell id="SgiLiXgoFrwoRo0Kyyoe-78" value="Начало" style="rounded=1;whiteSpace=wrap;html=1;arcSize=50;" vertex="1" parent="vKauSasiYgyH7li5i26U-1">
                    <mxGeometry x="97" y="70" width="86" height="30" as="geometry"/>
                </mxCell>
            </root>
        </mxGraphModel>
    </diagram>
</mxfile>